<?xml version="1.0" encoding="utf-8"?>
<!-- Generator: Adobe Illustrator 19.2.1, SVG Export Plug-In . SVG Version: 6.00 Build 0)  -->
<svg version="1.1" id="Layer_1" xmlns="http://www.w3.org/2000/svg" xmlns:xlink="http://www.w3.org/1999/xlink" x="0px" y="0px"
	 viewBox="0 0 261.5 102.2" style="enable-background:new 0 0 261.5 102.2;" xml:space="preserve">
<style type="text/css">
	.st0{fill:#23A9E1;}
	.st1{fill:#0072B7;}
	.st2{fill:#FFFFFF;}
</style>
<title>logo_light</title>
<g>
	<circle class="st0" cx="207.9" cy="50.2" r="48.5"/>
	<g>
		<path class="st1" d="M155.6,69.7c-1.3-0.1-2.2-0.5-2.8-1.5c-0.3-0.5-0.5-1.5-0.6-3.1V28.6h-2.8l-7.9,3.2l0.8,2.1l0,0
			c0.1,0,0.3-0.1,0.4-0.1c1.3,0,2.3,1.1,2.4,2.6c0,0.1,0,0.2,0,0.3c0,8.4,0,28.5,0,28.5c-0.1,1.6-0.3,2.6-0.6,3.1
			c-0.6,0.9-1.5,1.4-2.8,1.5h-0.3v2h14.4v-2L155.6,69.7z"/>
		<path class="st1" d="M62.3,85.9c-2.6,3.1-5,5.2-7.1,6.4c-2.7,1.5-6.5,2.2-10.1,2.2c-4.2,0-8-1-11.2-2.9s-5.7-4.7-7.3-8.2
			c-0.8-1.7-1.3-3.6-1.8-5.6c-0.4-2.2-0.6-4.5-0.6-7c0-4.6,0.5-8.7,1.5-12.3c0.3-1.1,0.7-2,1.1-2.9c1.7-4,4.1-6.9,7-8.7
			c3-1.8,6.4-2.7,10-2.7c4.4,0,8.2,1.2,11.4,3.7c2.8,2.2,5.1,5.8,6.8,10.7l0.1,0.3h3.2l-1.4-19.7h-2.3c0,0-0.6,4-3.3,4
			c-0.5,0-1-0.1-2.4-0.9c-4.1-2.1-8.4-3.1-12.6-3.1c-5.4,0-10.5,1.3-15.1,4s-8.2,6.5-10.9,11.4c-2.6,4.9-4,10.3-4,16.1
			c0,7.2,2,13.6,6,18.9c5.4,7.2,13,10.9,22.7,10.9c5.4,0,10.1-1.2,14.1-3.6c3.3-2,6.3-5.1,8.9-9.2L62.3,85.9z"/>
		<circle class="st1" cx="116.7" cy="35.3" r="3.4"/>
		<path class="st1" d="M104.1,45.4L104.1,45.4c-1.8-1.9-4.5-3.4-8.1-4.3c-0.3-0.1-0.8-0.2-1.2-0.3c1.8-0.8,3.2-2,4.3-3.6
			c1.3-1.9,2-3.8,2-5.9c0-2.9-1.1-5.7-3.1-7.5c-1.5-1.3-3.9-2.6-6.8-3.1c-5.2-1-9.6-1-10.5-1c-0.3,0-3.4,0-3.8-0.1H64.2
			c0,0,0,1.2,0,2.2c1.1,0,4.6,0.4,4.6,5.2l-0.1,14L68.6,60c0,3.3-0.3,5.4-0.8,6.4c-0.9,1.5-2.3,2.1-4.4,2.1h-2.6l0.3,3.3h24.7
			c5.7,0,10.1-0.6,13-1.9c2.9-1.3,5.1-3.3,6.8-6c1.6-2.7,2.4-5.6,2.4-8.6C107.8,51.5,106.6,48.2,104.1,45.4z M76.5,23.3
			c0.5,0,3.6,0,4.3,0c2.9,0,5.3,0.4,7.2,1.2c1.9,0.8,3.3,1.9,4.1,3.3c0.8,1.4,1.3,2.9,1.3,4.4c0,2.3-1,4.2-2.8,5.7
			c-1.9,1.5-4.7,2.4-8.2,2.4c-1.1,0-4.7-0.1-5.9-0.2L76.5,23.3L76.5,23.3z M94.8,65.2c-2.3,2.3-5.7,3.4-10.2,3.4
			c-2.7,0-5.6-0.4-8.4-1.1V43.4c0.6-0.1,1.5-0.2,2.4-0.3c1.1-0.1,2.4-0.1,4-0.1c3.5,0,6.6,0.6,8.9,1.8c2.4,1.2,4.1,2.8,5.2,4.9
			c1.1,2,1.6,4.3,1.6,6.5C98.3,59.7,97.2,62.9,94.8,65.2z"/>
		<path class="st1" d="M139.6,69.7c-1.3-0.1-2.2-0.5-2.8-1.5c-0.3-0.5-0.5-1.5-0.6-3.1V28.6h-2.8l-7.9,3.2l0.8,2.1l0,0
			c0.1,0,0.3-0.1,0.4-0.1c1.3,0,2.3,1.1,2.4,2.6c0,0.1,0,0.2,0,0.3c0,8.4,0,28.5,0,28.5c-0.1,1.6-0.3,2.6-0.6,3.1
			c-0.6,0.9-1.5,1.4-2.8,1.5h-0.3v2h3.6h1h5.2h1h3.6v-2L139.6,69.7z"/>
		<path class="st1" d="M123.5,69.7c-1.3-0.1-2.2-0.5-2.8-1.5c-0.3-0.5-0.5-1.5-0.6-3.1V43.1h-2.6l-7.9,3.2l0.8,2.1l0,0
			c0.1,0,0.3-0.1,0.4-0.1c1.3,0,2.3,1.1,2.4,2.6c0,0.1,0,0.2,0,0.3c0,8.4,0,14,0,14c-0.1,1.6-0.3,2.6-0.6,3.1
			c-0.6,0.9-1.5,1.4-2.8,1.5h-0.3v2h3.6h1h4.9h1h3.6v-2L123.5,69.7z"/>
		<path class="st1" d="M50,47.5c-2.6,3.1-5,5.2-7.1,6.4c-2.7,1.5-6.5,2.2-10.1,2.2c-4.2,0-8-1-11.2-2.9c-3.3-1.9-5.7-4.7-7.3-8.2
			c-0.8-1.7-1.3-3.6-1.8-5.6c-0.4-2.2-0.6-4.5-0.6-7c0-4.6,0.5-8.7,1.5-12.3c0.3-1.1,0.7-2,1.1-2.9c1.7-4,4.1-6.9,7-8.7
			c3-1.8,6.4-2.7,10-2.7c4.4,0,8.2,1.2,11.4,3.7c2.8,2.2,5.1,5.8,6.8,10.7l0.1,0.3h3.2L51.5,1h-2.3c0,0-0.6,4-3.3,4
			c-0.5,0-1-0.1-2.4-0.9C39.4,2,35.2,1,30.9,1c-5.4,0-10.5,1.3-15.1,4S7.6,11.5,5,16.4c-2.6,4.9-4,10.3-4,16.1c0,7.2,2,13.6,6,18.9
			c5.4,7.2,13,10.9,22.7,10.9c5.4,0,10.1-1.2,14.1-3.6c3.3-2,6.3-5.1,8.9-9.2L50,47.5z"/>
	</g>
	<g>
		<path class="st2" d="M176.2,34.9c2.1-0.4,5.1-0.6,9.3-0.6c4.2,0,7.3,0.8,9.3,2.4c1.9,1.5,3.3,4.1,3.3,7c0,3-1,5.5-2.8,7.2
			c-2.4,2.2-5.8,3.2-9.9,3.2c-0.9,0-1.7-0.1-2.4-0.1v10.9h-6.8V34.9H176.2z M183.1,48.7c0.6,0.1,1.3,0.2,2.3,0.2
			c3.6,0,5.9-1.9,5.9-5c0-2.8-1.9-4.5-5.4-4.5c-1.4,0-2.4,0.1-2.8,0.3L183.1,48.7L183.1,48.7z"/>
		<path class="st2" d="M213.9,64.9l-0.4-2.2h-0.1c-1.5,1.8-3.7,2.7-6.3,2.7c-4.5,0-7.1-3.3-7.1-6.8c0-5.7,5.1-8.5,13-8.4v-0.3
			c0-1.1-0.6-2.8-4-2.8c-2.2,0-4.7,0.8-6.1,1.7l-1.3-4.4c1.5-0.8,4.5-1.9,8.6-1.9c7.3,0,9.7,4.3,9.7,9.5v7.7c0,2.1,0.1,4.1,0.3,5.4
			H213.9z M213.1,54.5c-3.6-0.1-6.4,0.8-6.4,3.4c0,1.8,1.1,2.6,2.7,2.6c1.7,0,3.1-1.1,3.6-2.6c0.1-0.4,0.1-0.8,0.1-1.1L213.1,54.5
			L213.1,54.5z"/>
		<path class="st2" d="M229.8,42.9l3.3,10.8c0.4,1.3,0.8,2.9,1.1,4.1h0.1c0.3-1.1,0.7-2.8,1-4.1l2.7-10.8h7.3l-5.1,14.5
			c-3.1,8.7-5.3,12.3-7.7,14.5c-2.4,2-4.9,2.8-6.6,3l-1.5-5.8c0.8-0.1,1.9-0.5,3-1.1c1-0.5,2.2-1.6,2.8-2.7c0.3-0.3,0.4-0.7,0.4-1
			c0-0.3-0.1-0.6-0.3-1.1l-8-20.2L229.8,42.9L229.8,42.9z"/>
	</g>
</g>
</svg>
